# xmcd
#
# Track frame offsets:
#	225
#	23912
#	37739
#	56586
#	81137
#	97778
#	119505
#	136057
#	147168
#	161210
#	179197
#	193200
#
# Disc length: 2829 seconds
# Revision: 1
# Processed by: cddbd v1.5.2PL0 Copyright (c) Steve Scherf et al.
# Submitted via: dBpowerAMP V12.0
#
DISCID=a40b0a0c
DTITLE=Rory Gallagher - Blues
DYEAR=2019
DGENRE=Rock
TTITLE0=Who's That Coming? (Tattoo Album Session - Alternative Acoustic Take - 1973)
TTITLE1=Should've Learnt My Lesson (Deuce Album Session - Alternative Acoustic Take - 1971)
TTITLE2=Prison Blues (Blueprint Album Session - 1973)
TTITLE3=Secret Agent (acoustic version - live on RTÉ TV - 1976)
TTITLE4=Blow Wind Blow (WNCR Cleveland radio session, 1973)
TTITLE5=Bankers Blues (Blueprint Album Session Outtake - 1973)
TTITLE6=Whole Lot of People (Deuce Album Session - Alternative Acoustic Take - 1971)
TTITLE7=Loanshark Blues (alternative acoustic take - live on Rockpalast - 1987)
TTITLE8=Pistol Slapper Blues (acoustic version - live on RTÉ TV - 1976)
TTITLE9=Can't Be Satisfied
TTITLE10=Want Ad Blues (BBC Radio 2 Dave Fanning session - 1987)
TTITLE11=Walkin' Blues (acoustic version - live on RTÉ TV - 1976)
EXTD=
EXTT0=
EXTT1=
EXTT2=
EXTT3=
EXTT4=
EXTT5=
EXTT6=
EXTT7=
EXTT8=
EXTT9=
EXTT10=
EXTT11=
PLAYORDER=
